<svg width="274" height="58" viewBox="0 0 274 58" fill="none" xmlns="http://www.w3.org/2000/svg">
<path d="M57.94 6.6C58.66 6.9 58.54 7.86 58.54 8.1C58.48 8.16 58.48 8.28 58.42 8.34C55.9 11.34 49.18 17.52 41.02 24.54C33.82 32.52 25.6 42.84 19 57.12C18.88 57.36 18.7 57.48 18.46 57.48C18.4 57.48 18.34 57.48 18.22 57.42C17.98 57.3 17.86 56.94 17.98 56.64C23.26 45.24 29.38 36.66 35.44 29.34C25 38.1 13.36 47.34 5.2 52.98C4.12 53.7 2.68 53.7 1.84 52.92C1 52.14 0.0400007 50.04 3.16 44.7C14.32 25.32 32.2 7.86 37.48 2.94C28.36 5.4 11.38 15.54 10.78 20.1C10.72 20.52 10.78 21.12 11.86 21.6C12.16 21.72 12.28 22.08 12.16 22.32C12.04 22.62 11.68 22.74 11.44 22.62C9.76 21.9 9.58 20.76 9.7 19.92C10.42 14.1 31 2.64 39.28 1.38C39.52 1.38 39.76 1.5 39.88 1.74C39.94 1.92 39.88 2.22 39.7 2.4C39.52 2.58 17.2 22.62 4.12 45.3C1.84 49.26 1.84 51.42 2.62 52.14C3.1 52.62 4 52.44 4.6 52.02C14.2 45.42 28.66 33.78 40.18 23.82C43.78 19.86 47.02 16.62 49.6 14.16C51.58 12.18 53.14 10.62 53.98 9.6C56.38 6.54 57.28 6.36 57.94 6.6ZM57.4 7.8V7.68C57.16 7.8 56.44 8.28 54.82 10.26C54.34 10.86 53.68 11.58 52.84 12.42C54.82 10.56 56.44 8.88 57.4 7.8ZM60.9625 39.06C61.0825 39.3 60.9025 39.6 60.6625 39.72C56.8225 41.1 49.2025 42.72 46.4425 42.72H46.3225C45.4825 42.72 45.1225 42.36 45.0025 42C44.6425 41.34 45.0025 40.2 46.0225 38.64C43.3225 40.08 38.8825 42.42 37.5625 42.78C37.2025 42.84 36.7825 42.96 36.4225 42.96C35.9425 42.96 35.5225 42.84 35.2825 42.42C34.8625 41.76 35.3425 40.68 36.9625 38.88C37.1425 38.64 37.5025 38.64 37.7425 38.82C37.9225 39 37.9825 39.36 37.8025 39.6C36.4825 41.1 36.2425 41.7 36.2425 41.88C36.3025 41.88 36.6025 41.88 37.2625 41.76C38.7025 41.4 45.0625 37.98 47.5825 36.6C47.7025 36.48 47.9425 36.42 48.1225 36.48C48.2425 36.54 48.3625 36.6 48.4225 36.72C48.5425 37.02 48.4825 37.26 48.2425 37.44C46.5625 39.6 45.7825 41.16 45.9625 41.58C45.9625 41.64 46.1425 41.64 46.3225 41.64H46.4425C49.0225 41.64 56.5825 40.08 60.3025 38.7C60.5425 38.64 60.8425 38.76 60.9625 39.06ZM58.7898 42.78L58.3698 42.72C58.0698 42.72 57.7698 42.48 57.7098 42.12C57.4698 41.16 58.9698 39.48 61.6098 37.8C62.0298 37.56 62.3298 37.32 62.6298 37.14L63.2898 36.66C63.5298 36.48 63.8898 36.54 64.0098 36.78C64.1898 37.02 64.1298 37.38 63.8898 37.5L63.2298 37.98L63.1698 38.04C64.0698 38.58 67.3698 40.08 71.6898 38.64C71.9898 38.52 72.2298 38.7 72.3498 39C72.4698 39.24 72.2898 39.54 71.9898 39.66C68.9298 40.8 65.2098 40.08 63.6498 39.48L63.5898 39.6C63.1698 40.92 60.9498 42.78 58.7898 42.78ZM58.8498 41.7C60.4698 41.64 62.2698 40.26 62.5698 39.24C62.6898 39 62.6298 38.94 62.5698 38.94C62.4498 38.82 62.3898 38.76 62.3298 38.64L62.2098 38.7C59.9298 40.14 59.0898 41.22 58.8498 41.7ZM95.1813 39.06C95.3013 39.3 95.1813 39.6 94.8813 39.72C91.0413 41.1 83.4213 42.72 80.6613 42.72H80.5413C79.7613 42.72 79.4013 42.36 79.2213 42C78.9213 41.4 79.2213 40.38 80.0013 39.06C77.7813 40.44 74.4813 42.24 71.7212 42.78C71.4212 42.84 71.0612 42.9 70.7612 42.9C70.2212 42.9 69.7412 42.78 69.5012 42.36C69.1412 41.64 69.5612 40.74 71.2412 38.88C71.4212 38.64 71.7212 38.64 71.9613 38.82C72.2013 39 72.2013 39.36 72.0213 39.6C70.7012 41.04 70.4612 41.58 70.4612 41.82C70.5812 41.82 70.8812 41.88 71.5412 41.7C73.2813 41.4 75.2613 40.5 77.0613 39.54C76.7013 39.48 76.4013 39.3 76.1613 39.06C75.8613 38.76 75.7412 38.28 75.8613 37.74C76.0413 36.36 78.0213 36.36 80.9613 36.36L82.1613 36.3C82.4013 36.3 82.5813 36.48 82.7013 36.66V36.96C82.7013 37.02 82.7013 37.14 82.6413 37.2C82.6413 37.32 82.5813 37.38 82.5213 37.44C82.5213 37.44 82.4613 37.44 82.4613 37.5C80.7213 39.6 80.0013 41.16 80.1813 41.58C80.2413 41.64 80.3613 41.64 80.6012 41.64C83.1213 41.7 90.8013 40.08 94.5213 38.7C94.7613 38.64 95.1213 38.76 95.1813 39.06ZM76.8813 37.92C76.8813 38.04 76.8813 38.22 76.9413 38.34C77.0613 38.46 77.2413 38.52 77.4813 38.52C78.3213 38.52 79.5213 38.04 80.5413 37.38C78.9213 37.44 76.9413 37.5 76.8813 37.92ZM205.689 5.4C205.869 5.64 205.809 6 205.509 6.18C204.489 6.84 181.869 21.72 166.509 24.66L163.509 28.02C163.509 28.14 163.509 28.2 163.509 28.26C163.809 33.06 164.229 40.38 169.149 46.08C175.089 52.98 186.129 56.1 201.969 55.26C202.269 55.26 202.569 55.5 202.569 55.8C202.569 56.1 202.329 56.34 202.029 56.34C200.289 56.46 198.609 56.52 197.049 56.52C165.189 56.52 163.089 38.76 162.429 29.22C151.209 41.52 143.769 47.82 140.349 47.88C140.049 47.88 139.809 47.64 139.809 47.34C139.749 47.04 140.049 46.74 140.349 46.74C142.389 46.74 147.789 43.68 162.309 27.66C162.309 26.7 162.249 25.8 162.129 25.14C160.989 25.14 160.389 24.48 160.269 23.88C160.149 23.28 160.449 22.62 160.929 22.38C161.169 22.26 161.889 22.08 162.549 23.04C162.729 23.28 162.909 23.64 162.969 24C163.929 23.94 164.889 23.82 165.909 23.64C170.109 18.9 174.969 13.14 180.609 6.3C152.829 10.02 148.989 13.86 148.629 15.36C148.449 16.08 149.169 16.56 149.169 16.56C149.469 16.74 149.529 17.1 149.349 17.34C149.169 17.58 148.869 17.64 148.569 17.46C148.509 17.46 147.189 16.56 147.549 15.12C148.449 11.28 159.849 7.92 181.449 5.1L181.689 4.98L184.749 1.26C184.929 1.02 185.229 0.959998 185.409 1.08C185.889 1.32 186.549 1.92 186.489 2.82C186.429 3.96 185.109 4.92 182.349 5.94C177.009 12.48 172.149 18.24 167.769 23.28C182.889 19.74 204.669 5.4 204.909 5.22C205.149 5.1 205.509 5.16 205.689 5.4ZM185.229 2.34L183.849 4.08C185.229 3.36 185.409 2.82 185.409 2.7C185.409 2.58 185.349 2.46 185.229 2.34ZM161.349 23.7C161.409 23.82 161.589 23.94 161.829 24L161.649 23.7C161.469 23.4 161.349 23.4 161.349 23.4V23.7ZM163.329 26.52L164.769 24.9C164.229 25.02 163.689 25.02 163.209 25.08C163.269 25.5 163.329 25.98 163.329 26.52ZM199.449 39.06C199.569 39.3 199.389 39.66 199.149 39.72C197.049 40.44 195.429 40.68 194.229 40.68C192.669 40.68 191.769 40.26 191.229 39.72C191.169 39.66 191.109 39.66 191.109 39.6C188.109 41.76 184.569 42.78 182.889 42.78C182.049 42.78 181.809 42.3 181.749 42.12C181.509 41.34 182.229 40.44 184.089 39.06C187.929 36.18 190.509 36.54 191.349 37.5C191.589 37.8 191.649 38.1 191.649 38.34V38.46C191.649 38.52 191.709 38.88 192.189 39.18C192.849 39.6 194.649 40.14 198.789 38.7C199.089 38.64 199.389 38.76 199.449 39.06ZM190.269 38.82C190.269 38.76 190.749 38.4 190.509 38.16C190.029 37.62 187.869 37.56 184.689 39.9C183.249 40.98 182.889 41.52 182.769 41.76H182.949C184.389 41.76 187.569 40.74 190.269 38.82ZM212.485 38.94C212.605 39.18 212.545 39.54 212.305 39.66C207.865 41.34 203.065 44.1 198.625 45.84L197.065 47.04C191.545 51.18 188.605 53.28 187.105 53.28C186.805 53.28 186.625 53.22 186.445 53.1C185.785 52.56 186.085 51.48 186.385 50.76C187.165 48.84 191.065 47.46 196.525 45.48L198.145 44.88C199.165 44.16 200.125 43.44 201.025 42.84C204.205 40.62 204.385 39.54 204.385 39.24V39.12C204.265 39.06 204.145 39 204.085 38.88C204.025 38.82 204.025 38.7 204.085 38.58C204.085 38.52 204.085 38.4 204.145 38.34L204.325 38.16C204.445 38.1 205.045 37.8 205.765 37.44L202.705 37.56C202.585 38.16 202.045 38.88 198.925 39.78C198.745 39.72 198.565 39.54 198.505 39.36C198.445 39.06 198.625 38.76 198.865 38.7C201.145 38.1 201.505 37.62 201.625 37.44C201.505 37.32 201.445 37.08 201.505 36.9C201.565 36.72 201.745 36.54 201.985 36.54C202.045 36.54 207.385 36.18 209.365 36.18C209.605 36.18 209.845 36.42 209.905 36.66C209.965 36.96 209.725 37.2 209.425 37.26C208.285 37.5 206.365 38.34 205.405 38.82C205.405 38.94 205.465 39.06 205.465 39.24C205.465 40.38 204.325 41.76 201.865 43.5C205.285 41.7 208.405 39.84 211.705 38.76C211.945 38.7 212.305 38.7 212.485 38.94ZM187.105 52.2C188.065 52.38 192.025 49.44 195.265 47.1C191.305 48.48 187.885 49.86 187.405 51.12C187.105 51.84 187.105 52.14 187.105 52.2ZM235.455 39.06C235.575 39.3 235.395 39.6 235.155 39.72C231.315 41.1 223.695 42.72 220.935 42.72H220.815C219.975 42.72 219.615 42.36 219.495 42C219.135 41.34 219.495 40.2 220.515 38.64C217.815 40.08 213.375 42.42 212.055 42.78C211.695 42.84 211.275 42.96 210.915 42.96C210.435 42.96 210.015 42.84 209.775 42.42C209.355 41.76 209.835 40.68 211.455 38.88C211.635 38.64 211.995 38.64 212.235 38.82C212.415 39 212.475 39.36 212.295 39.6C210.975 41.1 210.735 41.7 210.735 41.88C210.795 41.88 211.095 41.88 211.755 41.76C213.195 41.4 219.555 37.98 222.075 36.6C222.195 36.48 222.435 36.42 222.615 36.48C222.735 36.54 222.855 36.6 222.915 36.72C223.035 37.02 222.975 37.26 222.735 37.44C221.055 39.6 220.275 41.16 220.455 41.58C220.455 41.64 220.635 41.64 220.815 41.64H220.935C223.515 41.64 231.075 40.08 234.795 38.7C235.035 38.64 235.335 38.76 235.455 39.06ZM249.722 39.06C249.842 39.3 249.662 39.66 249.422 39.72C247.322 40.44 245.702 40.68 244.502 40.68C242.942 40.68 242.042 40.26 241.502 39.72C241.442 39.66 241.382 39.66 241.382 39.6C238.382 41.76 234.842 42.78 233.162 42.78C232.322 42.78 232.082 42.3 232.022 42.12C231.782 41.34 232.502 40.44 234.362 39.06C238.202 36.18 240.782 36.54 241.622 37.5C241.862 37.8 241.922 38.1 241.922 38.34V38.46C241.922 38.52 241.982 38.88 242.462 39.18C243.122 39.6 244.922 40.14 249.062 38.7C249.362 38.64 249.662 38.76 249.722 39.06ZM240.542 38.82C240.542 38.76 241.022 38.4 240.782 38.16C240.302 37.62 238.142 37.56 234.962 39.9C233.522 40.98 233.162 41.52 233.042 41.76H233.222C234.662 41.76 237.842 40.74 240.542 38.82ZM273.019 22.32C273.379 22.5 273.619 22.92 273.559 23.4C273.199 28.2 255.799 35.22 253.339 36.18L252.979 36.54C252.559 36.9 252.019 37.38 251.359 38.04C255.019 35.76 257.839 35.52 258.919 36.36C259.519 36.78 259.579 37.5 259.219 38.22C258.619 39.18 257.539 40.08 256.339 40.8C258.739 40.5 261.979 39.96 266.419 38.7C266.719 38.64 267.019 38.76 267.079 39.06C267.139 39.36 267.019 39.66 266.719 39.72C260.119 41.58 256.159 41.94 253.699 42.12C252.739 42.48 251.899 42.72 251.239 42.78L250.699 42.84C250.339 42.84 250.039 42.78 249.859 42.6C249.739 42.48 249.679 42.36 249.679 42.18C249.679 42.06 249.739 41.94 249.859 41.82C250.459 41.22 251.359 41.16 252.979 41.1L253.459 41.04C255.319 40.32 257.479 39.06 258.259 37.68C258.439 37.32 258.319 37.26 258.259 37.2C257.359 36.48 252.919 37.08 247.159 42.72C246.919 42.9 246.619 42.9 246.379 42.72C246.319 42.66 246.259 42.54 246.259 42.48V42.36C246.259 42.18 246.319 42.06 246.379 42C249.199 38.46 251.179 36.66 252.259 35.7L252.679 35.34C261.379 27.3 270.859 21.24 273.019 22.32ZM272.539 23.34V23.22L272.299 23.16C270.739 23.16 264.079 26.76 255.679 34.02C262.039 31.38 272.299 26.4 272.539 23.34Z" fill="#111111"/>
</svg>
